<?xml version="1.0" standalone="no"?><!DOCTYPE svg PUBLIC "-//W3C//DTD SVG 1.1//EN" "http://www.w3.org/Graphics/SVG/1.1/DTD/svg11.dtd"><svg t="1747191565257" class="icon" viewBox="0 0 1024 1024" version="1.1" xmlns="http://www.w3.org/2000/svg" p-id="1536" xmlns:xlink="http://www.w3.org/1999/xlink" width="200" height="200"><path d="M987.410286 391.168l-286.793143-165.814857-154.441143 95.158857h-0.036571S493.622857 351.817143 490.368 402.285714c-5.010286-3.510857-13.897143-12.873143-14.811429-20.260571L475.410286 379.574857V263.131429c0-8.265143 5.010286-16.493714 14.957714-22.747429L701.385143 109.714286 987.410286 274.724571" fill="#2480C3" p-id="1537"></path><path d="M36.699429 267.666286c0.914286-7.497143 6.144-14.848 15.579428-20.553143L425.197714 21.613714C449.042286 7.204571 480.530286 0 511.981714 0v118.016c-31.451429 0-62.902857 7.204571-86.784 21.613714L111.780571 329.142857l313.417143 189.513143c47.725714 28.854857 125.842286 28.854857 173.641143 0l372.882286-225.499429c10.459429-6.326857 15.689143-14.628571 15.689143-23.04v118.016c0 8.411429-5.229714 16.676571-15.689143 23.04l-372.882286 225.462858c-47.798857 28.891429-125.915429 28.891429-173.641143 0L52.278857 411.172571c-10.496-6.363429-15.725714-14.628571-15.725714-23.04V270.116571l0.146286-2.450285z" fill="#2480C3" p-id="1538"></path><path d="M987.410286 586.642286c0 7.862857-5.229714 15.725714-15.725715 21.686857l-372.882285 212.443428c-47.725714 27.172571-125.878857 27.172571-173.641143 0L52.278857 608.292571C41.782857 602.404571 36.553143 594.541714 36.553143 586.678857V475.428571c0 7.899429 5.229714 15.725714 15.725714 21.76l372.882286 212.370286c47.762286 27.245714 125.915429 27.245714 173.641143 0l372.918857-212.370286c10.459429-5.997714 15.689143-13.860571 15.689143-21.723428v111.177143z" fill="#2480C3" p-id="1539"></path><path d="M987.410286 769.462857c0 7.862857-5.229714 15.725714-15.725715 21.723429l-372.882285 212.406857c-47.725714 27.209143-125.878857 27.209143-173.641143 0L52.278857 791.186286C41.782857 785.188571 36.553143 777.325714 36.553143 769.462857V658.285714c0 7.899429 5.229714 15.725714 15.725714 21.76l372.882286 212.370286c47.762286 27.209143 125.915429 27.209143 173.641143 0l372.918857-212.370286c10.459429-5.997714 15.689143-13.860571 15.689143-21.723428v111.177143z" fill="#2480C3" p-id="1540"></path></svg>